<?xml version="1.0" encoding="utf-8"?>
<!-- Generator: Adobe Illustrator 16.0.0, SVG Export Plug-In . SVG Version: 6.00 Build 0)  -->
<!DOCTYPE svg PUBLIC "-//W3C//DTD SVG 1.1//EN" "http://www.w3.org/Graphics/SVG/1.1/DTD/svg11.dtd">
<svg version="1.1" id="Layer_1" xmlns="http://www.w3.org/2000/svg" xmlns:xlink="http://www.w3.org/1999/xlink" x="0px" y="0px"
	 width="121.934px" height="26.777px" viewBox="0 0 121.934 26.777" enable-background="new 0 0 121.934 26.777"
	 xml:space="preserve">
<g>
	<path fill="#192B57" d="M7.207,26.777c-1.104,0-2.075-0.156-2.915-0.469s-1.528-0.744-2.065-1.297
		c-0.537-0.551-0.974-1.239-1.311-2.064s-0.574-1.707-0.71-2.645S0,18.306,0,17.124V9.639C0,8.457,0.068,7.397,0.205,6.46
		s0.374-1.818,0.71-2.644s0.774-1.512,1.311-2.059s1.226-0.977,2.065-1.289S6.104,0,7.207,0c1.221,0,2.275,0.181,3.164,0.542
		s1.599,0.894,2.131,1.597s0.933,1.519,1.201,2.446s0.427,2.012,0.476,3.252c0.01,0.186,0.015,0.474,0.015,0.864h-3.75V7.866
		c-0.01-0.518-0.029-0.96-0.059-1.325c-0.029-0.367-0.083-0.745-0.161-1.136S10.032,4.69,9.88,4.432S9.539,3.934,9.309,3.713
		C9.08,3.494,8.789,3.332,8.438,3.23c-0.352-0.104-0.762-0.154-1.23-0.154c-0.605,0-1.125,0.098-1.56,0.293S4.873,3.816,4.629,4.123
		C4.385,4.432,4.197,4.844,4.065,5.361S3.848,6.385,3.809,6.877C3.77,7.371,3.75,7.979,3.75,8.701v9.375
		c0,0.625,0.027,1.191,0.081,1.699s0.159,1.014,0.315,1.516c0.156,0.504,0.359,0.926,0.608,1.268s0.581,0.618,0.996,0.828
		s0.901,0.314,1.458,0.314s1.035-0.107,1.436-0.322s0.715-0.488,0.945-0.82s0.41-0.757,0.542-1.274s0.217-1.021,0.256-1.509
		s0.059-1.055,0.059-1.699v-0.938h3.75v0.938c0,1.357-0.12,2.549-0.359,3.574s-0.625,1.932-1.157,2.717
		c-0.532,0.787-1.255,1.385-2.168,1.795S8.496,26.777,7.207,26.777z"/>
	<path fill="#192B57" d="M26.118,25.02c-0.869,1.172-2.31,1.758-4.321,1.758s-3.452-0.586-4.321-1.758s-1.304-2.861-1.304-5.068
		v-5.625c0-2.207,0.435-3.896,1.304-5.068S19.785,7.5,21.797,7.5s3.452,0.586,4.321,1.758s1.304,2.861,1.304,5.068v5.625
		C27.422,22.158,26.987,23.848,26.118,25.02z M21.101,23.584c0.2,0.078,0.432,0.117,0.696,0.117s0.496-0.039,0.696-0.117
		s0.366-0.173,0.498-0.285s0.242-0.279,0.33-0.498c0.088-0.221,0.156-0.413,0.205-0.579s0.083-0.405,0.103-0.718
		s0.032-0.559,0.037-0.74c0.005-0.18,0.007-0.451,0.007-0.812v-5.625c0-0.361-0.002-0.632-0.007-0.812s-0.017-0.428-0.037-0.74
		s-0.054-0.552-0.103-0.718s-0.117-0.358-0.205-0.579c-0.088-0.219-0.198-0.385-0.33-0.498c-0.132-0.111-0.298-0.207-0.498-0.285
		s-0.432-0.117-0.696-0.117s-0.496,0.039-0.696,0.117s-0.366,0.174-0.498,0.285c-0.132,0.113-0.242,0.279-0.33,0.498
		c-0.088,0.221-0.156,0.413-0.205,0.579s-0.083,0.405-0.103,0.718s-0.032,0.56-0.037,0.74s-0.007,0.451-0.007,0.812v5.625
		c0,0.361,0.002,0.633,0.007,0.812c0.005,0.182,0.017,0.428,0.037,0.74s0.054,0.552,0.103,0.718s0.117,0.358,0.205,0.579
		c0.088,0.219,0.198,0.386,0.33,0.498S20.901,23.506,21.101,23.584z"/>
	<path fill="#192B57" d="M29.824,26.514v-2.812l6.562-13.125h-5.625V7.764h9.375v2.812l-6.562,13.125h6.562v2.812H29.824z"/>
	<path fill="#192B57" d="M42.642,4.951v-3.75h3.75v3.75H42.642z M42.642,26.514V7.764h3.75v18.75H42.642z"/>
	<path fill="#192B57" d="M49.98,26.514V7.764h3.75v2.021c0.557-0.508,1.011-0.896,1.362-1.164s0.837-0.522,1.458-0.762
		S57.832,7.5,58.535,7.5c0.801,0,1.45,0.293,1.948,0.879s0.747,1.304,0.747,2.153v15.981h-3.75V12.451
		c0-0.654-0.093-1.13-0.278-1.428s-0.562-0.447-1.128-0.447c-0.322,0-0.642,0.066-0.959,0.197c-0.317,0.133-0.554,0.255-0.71,0.367
		s-0.381,0.29-0.674,0.534v14.839H49.98z"/>
	<path fill="#192B57" d="M64.512,26.514V0.264h3.75v9.521c0.557-0.508,1.011-0.896,1.362-1.164s0.837-0.522,1.458-0.762
		S72.363,7.5,73.066,7.5c0.801,0,1.45,0.293,1.948,0.879s0.747,1.304,0.747,2.153v15.981h-3.75V12.451
		c0-0.645-0.081-1.118-0.242-1.421s-0.51-0.454-1.047-0.454c-0.762,0-1.582,0.366-2.461,1.099v14.839H64.512z"/>
	<path fill="#192B57" d="M82.31,26.777c-1.045,0-1.931-0.451-2.659-1.355c-0.727-0.902-1.091-1.921-1.091-3.054
		c0-0.908,0.153-1.733,0.462-2.476c0.307-0.742,0.632-1.335,0.974-1.779s0.913-0.903,1.714-1.377s1.406-0.799,1.816-0.975
		s1.123-0.464,2.139-0.864c0.176-0.068,0.308-0.122,0.396-0.161v-1.348c0-0.947-0.132-1.682-0.396-2.205
		C85.4,10.662,84.907,10.4,84.185,10.4c-0.645,0-1.106,0.223-1.384,0.666c-0.279,0.445-0.438,1.058-0.477,1.839
		c-0.01,0.107-0.015,0.269-0.015,0.483h-3.75c0.02-1.797,0.522-3.228,1.509-4.292S82.427,7.5,84.185,7.5
		c1.748,0,3.122,0.54,4.124,1.619c1,1.079,1.501,2.502,1.501,4.27v8.438c0,1.953,0.161,3.516,0.483,4.688h-3.735l-0.498-2.812
		c-0.195,0.391-0.354,0.693-0.476,0.908c-0.123,0.215-0.301,0.481-0.535,0.799s-0.469,0.562-0.703,0.732s-0.527,0.319-0.879,0.446
		S82.729,26.777,82.31,26.777z M84.185,23.701c0.264,0,0.521-0.078,0.769-0.234c0.25-0.156,0.438-0.308,0.564-0.454
		s0.283-0.342,0.469-0.586c0.029-0.049,0.054-0.083,0.073-0.103v-5.186c-0.156,0.107-0.415,0.273-0.776,0.498
		s-0.649,0.408-0.864,0.549c-0.215,0.143-0.474,0.338-0.776,0.586c-0.303,0.25-0.537,0.489-0.703,0.719S82.627,20,82.5,20.332
		s-0.19,0.679-0.19,1.04C82.31,22.925,82.935,23.701,84.185,23.701z"/>
	<path fill="#192B57" d="M93.032,26.514V7.764h3.75v2.505c0.381-0.742,0.935-1.389,1.663-1.94C99.172,7.776,99.98,7.5,100.869,7.5
		c0.029,0,0.229,0.02,0.601,0.059v4.146c-0.693-0.273-1.387-0.41-2.08-0.41c-0.781,0-1.411,0.234-1.89,0.703
		s-0.718,1.089-0.718,1.86v12.656H93.032z"/>
	<path fill="#192B57" d="M103.345,4.951v-3.75h3.75v3.75H103.345z M103.345,26.514V7.764h3.75v18.75H103.345z"/>
	<path fill="#192B57" d="M113.95,26.777c-1.045,0-1.931-0.451-2.659-1.355c-0.727-0.902-1.091-1.921-1.091-3.054
		c0-0.908,0.153-1.733,0.462-2.476c0.307-0.742,0.632-1.335,0.974-1.779s0.913-0.903,1.714-1.377s1.406-0.799,1.816-0.975
		s1.123-0.464,2.139-0.864c0.176-0.068,0.308-0.122,0.396-0.161v-1.348c0-0.947-0.132-1.682-0.396-2.205
		c-0.264-0.521-0.757-0.783-1.479-0.783c-0.645,0-1.106,0.223-1.384,0.666c-0.279,0.445-0.438,1.058-0.477,1.839
		c-0.01,0.107-0.015,0.269-0.015,0.483h-3.75c0.02-1.797,0.522-3.228,1.509-4.292s2.358-1.597,4.116-1.597
		c1.748,0,3.122,0.54,4.124,1.619c1,1.079,1.501,2.502,1.501,4.27v8.438c0,1.953,0.161,3.516,0.483,4.688h-3.735l-0.498-2.812
		c-0.195,0.391-0.354,0.693-0.476,0.908c-0.123,0.215-0.301,0.481-0.535,0.799s-0.469,0.562-0.703,0.732s-0.527,0.319-0.879,0.446
		S114.37,26.777,113.95,26.777z M115.825,23.701c0.264,0,0.521-0.078,0.769-0.234c0.25-0.156,0.438-0.308,0.564-0.454
		s0.283-0.342,0.469-0.586c0.029-0.049,0.054-0.083,0.073-0.103v-5.186c-0.156,0.107-0.415,0.273-0.776,0.498
		s-0.649,0.408-0.864,0.549c-0.215,0.143-0.474,0.338-0.776,0.586c-0.303,0.25-0.537,0.489-0.703,0.719s-0.312,0.51-0.439,0.842
		s-0.19,0.679-0.19,1.04C113.95,22.925,114.575,23.701,115.825,23.701z"/>
</g>
</svg>
